<mxfile host="Electron" modified="2024-02-04T12:42:10.128Z" agent="Mozilla/5.0 (Windows NT 10.0; Win64; x64) AppleWebKit/537.36 (KHTML, like Gecko) draw.io/23.0.2 Chrome/120.0.6099.109 Electron/28.1.0 Safari/537.36" etag="a-vUX9Fgz9YMC0IMv3g0" version="23.0.2" type="device">
  <diagram name="Page-1" id="W7EHYw7SueBYXFlCItC_">
    <mxGraphModel dx="1621" dy="511" grid="1" gridSize="10" guides="1" tooltips="1" connect="1" arrows="1" fold="1" page="1" pageScale="1" pageWidth="827" pageHeight="1169" math="0" shadow="0">
      <root>
        <mxCell id="0" />
        <mxCell id="1" parent="0" />
        <UserObject label="Archivist" type="externalEntity" source="" flow="" placeholders="1" id="Tji7DCNezXHY35kz0Ydz-1">
          <mxCell style="shape=rectangle;whiteSpace=wrap;html=1;fillColor=#ffffff;strokeColor=#000000;align=center;verticalAlign=middle;fontColor=#232F3E;" vertex="1" parent="1">
            <mxGeometry x="330" width="75" height="35" as="geometry" />
          </mxCell>
        </UserObject>
        <UserObject label="License Management" type="process" source="1" flow="License Application" placeholders="1" id="Tji7DCNezXHY35kz0Ydz-2">
          <mxCell style="shape=ellipse;perimeter=ellipsePerimeter;whiteSpace=wrap;html=1;fillColor=#ffffff;strokeColor=#000000;align=center;verticalAlign=middle;fontColor=#232F3E;" vertex="1" parent="1">
            <mxGeometry y="135" width="145" height="35" as="geometry" />
          </mxCell>
        </UserObject>
        <UserObject label="Rights Statement Application" type="process" source="1" flow="Rights Statement Specification" placeholders="1" id="Tji7DCNezXHY35kz0Ydz-3">
          <mxCell style="shape=ellipse;perimeter=ellipsePerimeter;whiteSpace=wrap;html=1;fillColor=#ffffff;strokeColor=#000000;align=center;verticalAlign=middle;fontColor=#232F3E;" vertex="1" parent="1">
            <mxGeometry x="175" y="135" width="185" height="35" as="geometry" />
          </mxCell>
        </UserObject>
        <UserObject label="Restriction Management" type="process" source="1" flow="File Restriction,Restriction Date Setting,IP Restriction Setting" placeholders="1" id="Tji7DCNezXHY35kz0Ydz-4">
          <mxCell style="shape=ellipse;perimeter=ellipsePerimeter;whiteSpace=wrap;html=1;fillColor=#ffffff;strokeColor=#000000;align=center;verticalAlign=middle;fontColor=#232F3E;" vertex="1" parent="1">
            <mxGeometry x="390" y="135" width="155" height="35" as="geometry" />
          </mxCell>
        </UserObject>
        <UserObject label="File Licensing" type="process" source="1" flow="License Inquiry" placeholders="1" id="Tji7DCNezXHY35kz0Ydz-5">
          <mxCell style="shape=ellipse;perimeter=ellipsePerimeter;whiteSpace=wrap;html=1;fillColor=#ffffff;strokeColor=#000000;align=center;verticalAlign=middle;fontColor=#232F3E;" vertex="1" parent="1">
            <mxGeometry x="575" y="135" width="105" height="35" as="geometry" />
          </mxCell>
        </UserObject>
        <UserObject label="File Records" type="dataStore" source="2,3,4,5" flow="License Information,Rights Statement,Restriction Information,IP Restriction Information" placeholders="1" id="Tji7DCNezXHY35kz0Ydz-6">
          <mxCell style="html=1;dashed=0;whiteSpace=wrap;shape=partialRectangle;right=0;left=0;" vertex="1" parent="1">
            <mxGeometry x="265" y="360" width="95" height="35" as="geometry" />
          </mxCell>
        </UserObject>
        <UserObject label="Digital Files" type="dataStore" source="5" flow="File Status Inquiry" placeholders="1" id="Tji7DCNezXHY35kz0Ydz-7">
          <mxCell style="html=1;dashed=0;whiteSpace=wrap;shape=partialRectangle;right=0;left=0;" vertex="1" parent="1">
            <mxGeometry x="400" y="305" width="95" height="35" as="geometry" />
          </mxCell>
        </UserObject>
        <UserObject label="Researcher" type="externalEntity" source="5" flow="License Request" placeholders="1" id="Tji7DCNezXHY35kz0Ydz-8">
          <mxCell style="shape=rectangle;whiteSpace=wrap;html=1;fillColor=#ffffff;strokeColor=#000000;align=center;verticalAlign=middle;fontColor=#232F3E;" vertex="1" parent="1">
            <mxGeometry x="600" y="360" width="95" height="35" as="geometry" />
          </mxCell>
        </UserObject>
        <UserObject label="Digital Archive System" type="externalEntity" source="2,3,4" flow="License Application,Rights Statement Specification,File Restriction,Restriction Date Setting,IP Restriction Setting" placeholders="1" id="Tji7DCNezXHY35kz0Ydz-9">
          <mxCell style="shape=rectangle;whiteSpace=wrap;html=1;fillColor=#ffffff;strokeColor=#000000;align=center;verticalAlign=middle;fontColor=#232F3E;" vertex="1" parent="1">
            <mxGeometry x="60" y="360" width="145" height="35" as="geometry" />
          </mxCell>
        </UserObject>
        <mxCell id="Tji7DCNezXHY35kz0Ydz-10" value="License Application" style="endArrow=blockThin;endFill=1;fontSize=11;orthogonal=1;noEdgeStyle=1;" edge="1" parent="1" source="Tji7DCNezXHY35kz0Ydz-1" target="Tji7DCNezXHY35kz0Ydz-2">
          <mxGeometry relative="1" as="geometry">
            <Array as="points">
              <mxPoint x="343.125" y="47" />
              <mxPoint x="72.5" y="123" />
            </Array>
          </mxGeometry>
        </mxCell>
        <mxCell id="Tji7DCNezXHY35kz0Ydz-11" value="Rights Statement Specification" style="endArrow=blockThin;endFill=1;fontSize=11;orthogonal=1;noEdgeStyle=1;" edge="1" parent="1" source="Tji7DCNezXHY35kz0Ydz-1" target="Tji7DCNezXHY35kz0Ydz-3">
          <mxGeometry relative="1" as="geometry">
            <Array as="points">
              <mxPoint x="359.375" y="49" />
              <mxPoint x="267.5" y="123" />
            </Array>
          </mxGeometry>
        </mxCell>
        <mxCell id="Tji7DCNezXHY35kz0Ydz-12" value="File Restriction,Restriction Date Setting,IP Restriction Setting" style="endArrow=blockThin;endFill=1;fontSize=11;orthogonal=1;noEdgeStyle=1;" edge="1" parent="1" source="Tji7DCNezXHY35kz0Ydz-1" target="Tji7DCNezXHY35kz0Ydz-4">
          <mxGeometry relative="1" as="geometry">
            <Array as="points">
              <mxPoint x="375.625" y="49" />
              <mxPoint x="467.5" y="123" />
            </Array>
          </mxGeometry>
        </mxCell>
        <mxCell id="Tji7DCNezXHY35kz0Ydz-13" value="License Inquiry" style="endArrow=blockThin;endFill=1;fontSize=11;orthogonal=1;noEdgeStyle=1;" edge="1" parent="1" source="Tji7DCNezXHY35kz0Ydz-1" target="Tji7DCNezXHY35kz0Ydz-5">
          <mxGeometry relative="1" as="geometry">
            <Array as="points">
              <mxPoint x="391.875" y="47" />
              <mxPoint x="627.5" y="123" />
            </Array>
          </mxGeometry>
        </mxCell>
        <mxCell id="Tji7DCNezXHY35kz0Ydz-14" value="License Information,Rights Statement,Restriction Information,IP Restriction Information" style="endArrow=blockThin;endFill=1;fontSize=11;orthogonal=1;noEdgeStyle=1;" edge="1" parent="1" source="Tji7DCNezXHY35kz0Ydz-2" target="Tji7DCNezXHY35kz0Ydz-6">
          <mxGeometry relative="1" as="geometry">
            <Array as="points">
              <mxPoint x="106.25" y="182" />
              <mxPoint x="270.625" y="258" />
            </Array>
          </mxGeometry>
        </mxCell>
        <mxCell id="Tji7DCNezXHY35kz0Ydz-15" value="License Information,Rights Statement,Restriction Information,IP Restriction Information" style="endArrow=blockThin;endFill=1;fontSize=11;orthogonal=1;noEdgeStyle=1;" edge="1" parent="1" source="Tji7DCNezXHY35kz0Ydz-3" target="Tji7DCNezXHY35kz0Ydz-6">
          <mxGeometry relative="1" as="geometry">
            <Array as="points">
              <mxPoint x="311.25" y="182" />
              <mxPoint x="291.875" y="256" />
            </Array>
          </mxGeometry>
        </mxCell>
        <mxCell id="Tji7DCNezXHY35kz0Ydz-16" value="License Information,Rights Statement,Restriction Information,IP Restriction Information" style="endArrow=blockThin;endFill=1;fontSize=11;orthogonal=1;noEdgeStyle=1;" edge="1" parent="1" source="Tji7DCNezXHY35kz0Ydz-4" target="Tji7DCNezXHY35kz0Ydz-6">
          <mxGeometry relative="1" as="geometry">
            <Array as="points">
              <mxPoint x="503.75" y="182" />
              <mxPoint x="313.125" y="256" />
            </Array>
          </mxGeometry>
        </mxCell>
        <mxCell id="Tji7DCNezXHY35kz0Ydz-17" value="License Information,Rights Statement,Restriction Information,IP Restriction Information" style="endArrow=blockThin;endFill=1;fontSize=11;orthogonal=1;noEdgeStyle=1;" edge="1" parent="1" source="Tji7DCNezXHY35kz0Ydz-5" target="Tji7DCNezXHY35kz0Ydz-6">
          <mxGeometry relative="1" as="geometry">
            <Array as="points">
              <mxPoint x="595.8333333333334" y="182" />
              <mxPoint x="334.375" y="258" />
            </Array>
          </mxGeometry>
        </mxCell>
        <mxCell id="Tji7DCNezXHY35kz0Ydz-18" value="File Status Inquiry" style="endArrow=blockThin;endFill=1;fontSize=11;orthogonal=1;noEdgeStyle=1;" edge="1" parent="1" source="Tji7DCNezXHY35kz0Ydz-5" target="Tji7DCNezXHY35kz0Ydz-7">
          <mxGeometry relative="1" as="geometry">
            <Array as="points">
              <mxPoint x="627.5" y="184" />
              <mxPoint x="427.5" y="258" />
            </Array>
          </mxGeometry>
        </mxCell>
        <mxCell id="Tji7DCNezXHY35kz0Ydz-19" value="License Request" style="endArrow=blockThin;endFill=1;fontSize=11;orthogonal=1;noEdgeStyle=1;" edge="1" parent="1" source="Tji7DCNezXHY35kz0Ydz-5" target="Tji7DCNezXHY35kz0Ydz-8">
          <mxGeometry relative="1" as="geometry">
            <Array as="points">
              <mxPoint x="659.1666666666666" y="182" />
              <mxPoint x="627.5" y="258" />
            </Array>
          </mxGeometry>
        </mxCell>
        <mxCell id="Tji7DCNezXHY35kz0Ydz-20" value="License Application,Rights Statement Specification,File Restriction,Restriction Date Setting,IP Restriction Setting" style="endArrow=blockThin;endFill=1;fontSize=11;orthogonal=1;noEdgeStyle=1;" edge="1" parent="1" source="Tji7DCNezXHY35kz0Ydz-2" target="Tji7DCNezXHY35kz0Ydz-9">
          <mxGeometry x="0.5423" relative="1" as="geometry">
            <Array as="points">
              <mxPoint x="38.75" y="182" />
              <mxPoint x="107.5" y="258" />
            </Array>
            <mxPoint as="offset" />
          </mxGeometry>
        </mxCell>
        <mxCell id="Tji7DCNezXHY35kz0Ydz-21" value="License Application,Rights Statement Specification,File Restriction,Restriction Date Setting,IP Restriction Setting" style="endArrow=blockThin;endFill=1;fontSize=11;orthogonal=1;noEdgeStyle=1;" edge="1" parent="1" source="Tji7DCNezXHY35kz0Ydz-3" target="Tji7DCNezXHY35kz0Ydz-9">
          <mxGeometry relative="1" as="geometry">
            <Array as="points">
              <mxPoint x="223.75" y="182" />
              <mxPoint x="152.5" y="256" />
            </Array>
          </mxGeometry>
        </mxCell>
        <mxCell id="Tji7DCNezXHY35kz0Ydz-22" value="License Application,Rights Statement Specification,File Restriction,Restriction Date Setting,IP Restriction Setting" style="endArrow=blockThin;endFill=1;fontSize=11;orthogonal=1;noEdgeStyle=1;" edge="1" parent="1" source="Tji7DCNezXHY35kz0Ydz-4" target="Tji7DCNezXHY35kz0Ydz-9">
          <mxGeometry x="-0.5697" y="-2" relative="1" as="geometry">
            <Array as="points">
              <mxPoint x="431.25" y="182" />
              <mxPoint x="197.5" y="258" />
            </Array>
            <mxPoint as="offset" />
          </mxGeometry>
        </mxCell>
      </root>
    </mxGraphModel>
  </diagram>
</mxfile>
